<svg width="31" height="31" fill="none" xmlns="http://www.w3.org/2000/svg"><path fill-rule="evenodd" clip-rule="evenodd" d="M15.775 30.209c8.319 0 15.062-6.716 15.062-15 0-8.284-6.743-15-15.062-15-8.32 0-15.063 6.716-15.063 15 0 1.528.23 3.003.656 4.392.108.02.284.064.54.139l-.4-6.273c0-.115.195-.17.374-.221.097-.028.19-.054.244-.088.145-.092 3.137.996 3.296 1.068l3.826 1.723a4.932 4.932 0 0 1 3.332-.702l3.477-4.222c.043-3.37 2.803-6.084 6.198-6.089 3.172.034 5.801 2.44 6.102 5.574.32 3.389-2.18 6.393-5.589 6.715l-5.791 4.116a5.122 5.122 0 0 1-3.405 3.87c-2.687.905-5.607-.53-6.513-3.206l-2.014-.664c-.15-.048-2.891-1.183-3.634-1.6a15.063 15.063 0 0 0 14.364 10.468Zm9.58-19.112a3.09 3.09 0 0 1-3.1 3.081 3.09 3.09 0 0 1-3.099-3.08 3.09 3.09 0 0 1 3.1-3.081 3.09 3.09 0 0 1 3.099 3.08Zm-1.031 0a2.062 2.062 0 0 1-2.068 2.056 2.062 2.062 0 0 1-2.068-2.056c0-1.135.926-2.055 2.068-2.055s2.068.92 2.068 2.055ZM10.58 23.112c.417.202.877.308 1.342.308a3.31 3.31 0 0 0 1.036-.168 3.074 3.074 0 0 0 .33-5.685.517.517 0 0 0-.693.236.512.512 0 0 0 .237.688c.034.015.068.029.102.048a2.045 2.045 0 0 1 .886 2.768 2.07 2.07 0 0 1-2.784.88.518.518 0 0 0-.693.237.512.512 0 0 0 .237.688Z" fill="#FFB548"/></svg>